<mxfile host="65bd71144e" pages="2">
    <diagram id="C5RBs43oDa-KdzZeNtuy" name="Page-1">
        <mxGraphModel dx="2007" dy="617" grid="1" gridSize="10" guides="1" tooltips="1" connect="1" arrows="1" fold="1" page="0" pageScale="1" pageWidth="1100" pageHeight="850" math="0" shadow="0">
            <root>
                <mxCell id="WIyWlLk6GJQsqaUBKTNV-0"/>
                <mxCell id="WIyWlLk6GJQsqaUBKTNV-1" parent="WIyWlLk6GJQsqaUBKTNV-0"/>
                <mxCell id="StAt1fhdRgfHMtPMWZl1-4" value="" style="edgeStyle=orthogonalEdgeStyle;rounded=0;orthogonalLoop=1;jettySize=auto;html=1;exitX=1;exitY=0.5;exitDx=0;exitDy=0;" parent="WIyWlLk6GJQsqaUBKTNV-1" source="StAt1fhdRgfHMtPMWZl1-0" target="StAt1fhdRgfHMtPMWZl1-3" edge="1">
                    <mxGeometry relative="1" as="geometry">
                        <Array as="points">
                            <mxPoint x="-348" y="70"/>
                        </Array>
                    </mxGeometry>
                </mxCell>
                <mxCell id="StAt1fhdRgfHMtPMWZl1-5" value="Yes" style="edgeLabel;html=1;align=center;verticalAlign=middle;resizable=0;points=[];fontSize=14;" parent="StAt1fhdRgfHMtPMWZl1-4" vertex="1" connectable="0">
                    <mxGeometry x="-0.1746" y="-1" relative="1" as="geometry">
                        <mxPoint as="offset"/>
                    </mxGeometry>
                </mxCell>
                <mxCell id="StAt1fhdRgfHMtPMWZl1-9" value="" style="edgeStyle=orthogonalEdgeStyle;rounded=0;orthogonalLoop=1;jettySize=auto;html=1;" parent="WIyWlLk6GJQsqaUBKTNV-1" source="StAt1fhdRgfHMtPMWZl1-0" target="StAt1fhdRgfHMtPMWZl1-8" edge="1">
                    <mxGeometry relative="1" as="geometry"/>
                </mxCell>
                <mxCell id="StAt1fhdRgfHMtPMWZl1-10" value="No" style="edgeLabel;html=1;align=center;verticalAlign=middle;resizable=0;points=[];fontSize=14;" parent="StAt1fhdRgfHMtPMWZl1-9" vertex="1" connectable="0">
                    <mxGeometry x="-0.2639" y="-2" relative="1" as="geometry">
                        <mxPoint as="offset"/>
                    </mxGeometry>
                </mxCell>
                <mxCell id="StAt1fhdRgfHMtPMWZl1-0" value="Permanelty Removing?" style="rhombus;whiteSpace=wrap;html=1;" parent="WIyWlLk6GJQsqaUBKTNV-1" vertex="1">
                    <mxGeometry x="-936" y="40" width="115" height="110" as="geometry"/>
                </mxCell>
                <mxCell id="StAt1fhdRgfHMtPMWZl1-3" value="ACC Aplicaiton" style="rounded=1;whiteSpace=wrap;html=1;" parent="WIyWlLk6GJQsqaUBKTNV-1" vertex="1">
                    <mxGeometry x="64" y="40" width="120" height="60" as="geometry"/>
                </mxCell>
                <mxCell id="StAt1fhdRgfHMtPMWZl1-16" value="" style="edgeStyle=orthogonalEdgeStyle;rounded=0;orthogonalLoop=1;jettySize=auto;html=1;" parent="WIyWlLk6GJQsqaUBKTNV-1" source="StAt1fhdRgfHMtPMWZl1-8" target="StAt1fhdRgfHMtPMWZl1-15" edge="1">
                    <mxGeometry relative="1" as="geometry"/>
                </mxCell>
                <mxCell id="StAt1fhdRgfHMtPMWZl1-17" value="No" style="edgeLabel;html=1;align=center;verticalAlign=middle;resizable=0;points=[];fontSize=14;" parent="StAt1fhdRgfHMtPMWZl1-16" vertex="1" connectable="0">
                    <mxGeometry x="-0.2917" relative="1" as="geometry">
                        <mxPoint as="offset"/>
                    </mxGeometry>
                </mxCell>
                <mxCell id="uaetuBd2wdDZVBweYklu-1" value="" style="edgeStyle=orthogonalEdgeStyle;rounded=0;orthogonalLoop=1;jettySize=auto;html=1;" parent="WIyWlLk6GJQsqaUBKTNV-1" source="StAt1fhdRgfHMtPMWZl1-8" target="uaetuBd2wdDZVBweYklu-0" edge="1">
                    <mxGeometry relative="1" as="geometry"/>
                </mxCell>
                <mxCell id="uaetuBd2wdDZVBweYklu-4" value="Yes" style="edgeLabel;html=1;align=center;verticalAlign=middle;resizable=0;points=[];fontSize=14;" parent="uaetuBd2wdDZVBweYklu-1" vertex="1" connectable="0">
                    <mxGeometry x="-0.2077" y="-2" relative="1" as="geometry">
                        <mxPoint as="offset"/>
                    </mxGeometry>
                </mxCell>
                <mxCell id="StAt1fhdRgfHMtPMWZl1-8" value="Adding?" style="rhombus;whiteSpace=wrap;html=1;" parent="WIyWlLk6GJQsqaUBKTNV-1" vertex="1">
                    <mxGeometry x="-936" y="280" width="115" height="110" as="geometry"/>
                </mxCell>
                <mxCell id="StAt1fhdRgfHMtPMWZl1-21" value="" style="edgeStyle=orthogonalEdgeStyle;rounded=0;orthogonalLoop=1;jettySize=auto;html=1;" parent="WIyWlLk6GJQsqaUBKTNV-1" source="StAt1fhdRgfHMtPMWZl1-15" target="StAt1fhdRgfHMtPMWZl1-20" edge="1">
                    <mxGeometry relative="1" as="geometry"/>
                </mxCell>
                <mxCell id="uaetuBd2wdDZVBweYklu-37" value="No" style="edgeLabel;html=1;align=center;verticalAlign=middle;resizable=0;points=[];fontSize=14;" parent="StAt1fhdRgfHMtPMWZl1-21" vertex="1" connectable="0">
                    <mxGeometry x="-0.3839" y="3" relative="1" as="geometry">
                        <mxPoint as="offset"/>
                    </mxGeometry>
                </mxCell>
                <mxCell id="uaetuBd2wdDZVBweYklu-35" style="edgeStyle=orthogonalEdgeStyle;rounded=0;orthogonalLoop=1;jettySize=auto;html=1;fontSize=10;exitX=0;exitY=0.5;exitDx=0;exitDy=0;" parent="WIyWlLk6GJQsqaUBKTNV-1" source="StAt1fhdRgfHMtPMWZl1-15" edge="1">
                    <mxGeometry relative="1" as="geometry">
                        <mxPoint x="124" y="565" as="targetPoint"/>
                        <Array as="points">
                            <mxPoint x="-1010" y="590"/>
                            <mxPoint x="-1010" y="688"/>
                            <mxPoint x="-1036" y="688"/>
                            <mxPoint x="-1036" y="1110"/>
                            <mxPoint x="124" y="1110"/>
                        </Array>
                    </mxGeometry>
                </mxCell>
                <mxCell id="uaetuBd2wdDZVBweYklu-38" value="Yes" style="edgeLabel;html=1;align=center;verticalAlign=middle;resizable=0;points=[];fontSize=14;" parent="uaetuBd2wdDZVBweYklu-35" vertex="1" connectable="0">
                    <mxGeometry x="-0.6501" y="-4" relative="1" as="geometry">
                        <mxPoint y="1" as="offset"/>
                    </mxGeometry>
                </mxCell>
                <mxCell id="StAt1fhdRgfHMtPMWZl1-15" value="Painting?" style="rhombus;whiteSpace=wrap;html=1;" parent="WIyWlLk6GJQsqaUBKTNV-1" vertex="1">
                    <mxGeometry x="-948.5" y="515" width="140" height="150" as="geometry"/>
                </mxCell>
                <mxCell id="StAt1fhdRgfHMtPMWZl1-20" value="Send to Tawk" style="whiteSpace=wrap;html=1;" parent="WIyWlLk6GJQsqaUBKTNV-1" vertex="1">
                    <mxGeometry x="-608.5" y="810" width="120" height="60" as="geometry"/>
                </mxCell>
                <mxCell id="uaetuBd2wdDZVBweYklu-9" value="" style="edgeStyle=orthogonalEdgeStyle;rounded=0;orthogonalLoop=1;jettySize=auto;html=1;entryX=0;entryY=0.5;entryDx=0;entryDy=0;" parent="WIyWlLk6GJQsqaUBKTNV-1" source="uaetuBd2wdDZVBweYklu-0" target="uaetuBd2wdDZVBweYklu-11" edge="1">
                    <mxGeometry relative="1" as="geometry">
                        <mxPoint x="-66" y="325" as="targetPoint"/>
                    </mxGeometry>
                </mxCell>
                <mxCell id="uaetuBd2wdDZVBweYklu-10" value="Yes" style="edgeLabel;html=1;align=center;verticalAlign=middle;resizable=0;points=[];fontSize=14;" parent="uaetuBd2wdDZVBweYklu-9" vertex="1" connectable="0">
                    <mxGeometry x="-0.3573" y="-1" relative="1" as="geometry">
                        <mxPoint y="-75" as="offset"/>
                    </mxGeometry>
                </mxCell>
                <mxCell id="uaetuBd2wdDZVBweYklu-13" value="" style="edgeStyle=orthogonalEdgeStyle;rounded=0;orthogonalLoop=1;jettySize=auto;html=1;" parent="WIyWlLk6GJQsqaUBKTNV-1" source="uaetuBd2wdDZVBweYklu-0" target="uaetuBd2wdDZVBweYklu-12" edge="1">
                    <mxGeometry relative="1" as="geometry">
                        <Array as="points">
                            <mxPoint x="-211" y="455"/>
                        </Array>
                    </mxGeometry>
                </mxCell>
                <mxCell id="uaetuBd2wdDZVBweYklu-14" value="No" style="edgeLabel;html=1;align=center;verticalAlign=middle;resizable=0;points=[];fontSize=14;" parent="uaetuBd2wdDZVBweYklu-13" vertex="1" connectable="0">
                    <mxGeometry x="-0.3148" y="2" relative="1" as="geometry">
                        <mxPoint as="offset"/>
                    </mxGeometry>
                </mxCell>
                <mxCell id="uaetuBd2wdDZVBweYklu-0" value="Adding Security?&lt;br&gt;*add example" style="rhombus;whiteSpace=wrap;html=1;" parent="WIyWlLk6GJQsqaUBKTNV-1" vertex="1">
                    <mxGeometry x="-470" y="260" width="115" height="110" as="geometry"/>
                </mxCell>
                <mxCell id="uaetuBd2wdDZVBweYklu-11" value="No ACC link to Sentate Bill 1588&lt;br&gt;but must follow the law" style="rounded=0;whiteSpace=wrap;html=1;" parent="WIyWlLk6GJQsqaUBKTNV-1" vertex="1">
                    <mxGeometry x="-106" y="140" width="120" height="60" as="geometry"/>
                </mxCell>
                <mxCell id="uaetuBd2wdDZVBweYklu-16" value="" style="edgeStyle=orthogonalEdgeStyle;rounded=0;orthogonalLoop=1;jettySize=auto;html=1;" parent="WIyWlLk6GJQsqaUBKTNV-1" source="uaetuBd2wdDZVBweYklu-12" target="uaetuBd2wdDZVBweYklu-15" edge="1">
                    <mxGeometry relative="1" as="geometry"/>
                </mxCell>
                <mxCell id="uaetuBd2wdDZVBweYklu-21" value="Yes" style="edgeLabel;html=1;align=center;verticalAlign=middle;resizable=0;points=[];fontSize=14;" parent="uaetuBd2wdDZVBweYklu-16" vertex="1" connectable="0">
                    <mxGeometry x="-0.1085" y="-1" relative="1" as="geometry">
                        <mxPoint as="offset"/>
                    </mxGeometry>
                </mxCell>
                <mxCell id="uaetuBd2wdDZVBweYklu-26" value="" style="edgeStyle=orthogonalEdgeStyle;rounded=0;orthogonalLoop=1;jettySize=auto;html=1;" parent="WIyWlLk6GJQsqaUBKTNV-1" source="uaetuBd2wdDZVBweYklu-12" target="uaetuBd2wdDZVBweYklu-25" edge="1">
                    <mxGeometry relative="1" as="geometry"/>
                </mxCell>
                <mxCell id="uaetuBd2wdDZVBweYklu-39" value="No" style="edgeLabel;html=1;align=center;verticalAlign=middle;resizable=0;points=[];fontSize=14;" parent="uaetuBd2wdDZVBweYklu-26" vertex="1" connectable="0">
                    <mxGeometry x="-0.1924" y="2" relative="1" as="geometry">
                        <mxPoint as="offset"/>
                    </mxGeometry>
                </mxCell>
                <mxCell id="uaetuBd2wdDZVBweYklu-12" value="Adding or Attaching &lt;br&gt;to home?" style="rhombus;whiteSpace=wrap;html=1;fontSize=11;" parent="WIyWlLk6GJQsqaUBKTNV-1" vertex="1">
                    <mxGeometry x="-269.5" y="400" width="115" height="110" as="geometry"/>
                </mxCell>
                <mxCell id="uaetuBd2wdDZVBweYklu-17" style="edgeStyle=orthogonalEdgeStyle;rounded=0;orthogonalLoop=1;jettySize=auto;html=1;" parent="WIyWlLk6GJQsqaUBKTNV-1" source="uaetuBd2wdDZVBweYklu-15" target="uaetuBd2wdDZVBweYklu-11" edge="1">
                    <mxGeometry relative="1" as="geometry"/>
                </mxCell>
                <mxCell id="uaetuBd2wdDZVBweYklu-18" value="Yes" style="edgeLabel;html=1;align=center;verticalAlign=middle;resizable=0;points=[];fontSize=14;" parent="uaetuBd2wdDZVBweYklu-17" vertex="1" connectable="0">
                    <mxGeometry x="-0.2265" y="-2" relative="1" as="geometry">
                        <mxPoint as="offset"/>
                    </mxGeometry>
                </mxCell>
                <mxCell id="uaetuBd2wdDZVBweYklu-19" style="edgeStyle=orthogonalEdgeStyle;rounded=0;orthogonalLoop=1;jettySize=auto;html=1;" parent="WIyWlLk6GJQsqaUBKTNV-1" source="uaetuBd2wdDZVBweYklu-15" target="StAt1fhdRgfHMtPMWZl1-3" edge="1">
                    <mxGeometry relative="1" as="geometry"/>
                </mxCell>
                <mxCell id="uaetuBd2wdDZVBweYklu-20" value="No" style="edgeLabel;html=1;align=center;verticalAlign=middle;resizable=0;points=[];fontSize=14;" parent="uaetuBd2wdDZVBweYklu-19" vertex="1" connectable="0">
                    <mxGeometry x="0.2013" y="3" relative="1" as="geometry">
                        <mxPoint as="offset"/>
                    </mxGeometry>
                </mxCell>
                <mxCell id="uaetuBd2wdDZVBweYklu-42" value="No" style="edgeLabel;html=1;align=center;verticalAlign=middle;resizable=0;points=[];fontSize=14;" parent="uaetuBd2wdDZVBweYklu-19" vertex="1" connectable="0">
                    <mxGeometry x="-0.8277" y="1" relative="1" as="geometry">
                        <mxPoint as="offset"/>
                    </mxGeometry>
                </mxCell>
                <mxCell id="uaetuBd2wdDZVBweYklu-15" value="Religious reason?&amp;nbsp;&lt;br&gt;*Specify" style="rhombus;whiteSpace=wrap;html=1;" parent="WIyWlLk6GJQsqaUBKTNV-1" vertex="1">
                    <mxGeometry x="-66" y="400" width="100" height="115" as="geometry"/>
                </mxCell>
                <mxCell id="uaetuBd2wdDZVBweYklu-27" style="edgeStyle=orthogonalEdgeStyle;rounded=0;orthogonalLoop=1;jettySize=auto;html=1;exitX=1;exitY=0.5;exitDx=0;exitDy=0;" parent="WIyWlLk6GJQsqaUBKTNV-1" source="uaetuBd2wdDZVBweYklu-25" edge="1">
                    <mxGeometry relative="1" as="geometry">
                        <mxPoint x="124" y="450" as="targetPoint"/>
                        <Array as="points">
                            <mxPoint x="124" y="683"/>
                        </Array>
                    </mxGeometry>
                </mxCell>
                <mxCell id="uaetuBd2wdDZVBweYklu-28" value="Yes" style="edgeLabel;html=1;align=center;verticalAlign=middle;resizable=0;points=[];fontSize=14;" parent="uaetuBd2wdDZVBweYklu-27" vertex="1" connectable="0">
                    <mxGeometry x="-0.2609" y="-1" relative="1" as="geometry">
                        <mxPoint x="-38" as="offset"/>
                    </mxGeometry>
                </mxCell>
                <mxCell id="uaetuBd2wdDZVBweYklu-30" value="" style="edgeStyle=orthogonalEdgeStyle;rounded=0;orthogonalLoop=1;jettySize=auto;html=1;" parent="WIyWlLk6GJQsqaUBKTNV-1" source="uaetuBd2wdDZVBweYklu-25" target="uaetuBd2wdDZVBweYklu-29" edge="1">
                    <mxGeometry relative="1" as="geometry"/>
                </mxCell>
                <mxCell id="uaetuBd2wdDZVBweYklu-40" value="No" style="edgeLabel;html=1;align=center;verticalAlign=middle;resizable=0;points=[];fontSize=14;" parent="uaetuBd2wdDZVBweYklu-30" vertex="1" connectable="0">
                    <mxGeometry x="-0.344" y="1" relative="1" as="geometry">
                        <mxPoint as="offset"/>
                    </mxGeometry>
                </mxCell>
                <mxCell id="uaetuBd2wdDZVBweYklu-25" value="Attaching or extending&amp;nbsp;&lt;br&gt;&amp;nbsp;your home or garage&lt;br&gt;*add Examples" style="rhombus;whiteSpace=wrap;html=1;fontSize=10;" parent="WIyWlLk6GJQsqaUBKTNV-1" vertex="1">
                    <mxGeometry x="-292" y="600" width="160" height="165" as="geometry"/>
                </mxCell>
                <mxCell id="uaetuBd2wdDZVBweYklu-31" style="edgeStyle=orthogonalEdgeStyle;rounded=0;orthogonalLoop=1;jettySize=auto;html=1;" parent="WIyWlLk6GJQsqaUBKTNV-1" source="uaetuBd2wdDZVBweYklu-29" edge="1">
                    <mxGeometry relative="1" as="geometry">
                        <mxPoint x="124" y="680" as="targetPoint"/>
                    </mxGeometry>
                </mxCell>
                <mxCell id="uaetuBd2wdDZVBweYklu-32" value="Yes" style="edgeLabel;html=1;align=center;verticalAlign=middle;resizable=0;points=[];fontSize=14;" parent="uaetuBd2wdDZVBweYklu-31" vertex="1" connectable="0">
                    <mxGeometry x="-0.4422" y="-1" relative="1" as="geometry">
                        <mxPoint as="offset"/>
                    </mxGeometry>
                </mxCell>
                <mxCell id="uaetuBd2wdDZVBweYklu-33" style="edgeStyle=orthogonalEdgeStyle;rounded=0;orthogonalLoop=1;jettySize=auto;html=1;" parent="WIyWlLk6GJQsqaUBKTNV-1" source="uaetuBd2wdDZVBweYklu-29" target="StAt1fhdRgfHMtPMWZl1-20" edge="1">
                    <mxGeometry relative="1" as="geometry"/>
                </mxCell>
                <mxCell id="uaetuBd2wdDZVBweYklu-34" value="No" style="edgeLabel;html=1;align=center;verticalAlign=middle;resizable=0;points=[];fontSize=14;" parent="uaetuBd2wdDZVBweYklu-33" vertex="1" connectable="0">
                    <mxGeometry x="-0.1196" relative="1" as="geometry">
                        <mxPoint as="offset"/>
                    </mxGeometry>
                </mxCell>
                <mxCell id="uaetuBd2wdDZVBweYklu-29" value="Adding detach structure in the&lt;br&gt;front or back yard&lt;br style=&quot;font-size: 9px;&quot;&gt;*add Examples" style="rhombus;whiteSpace=wrap;html=1;fontSize=9;" parent="WIyWlLk6GJQsqaUBKTNV-1" vertex="1">
                    <mxGeometry x="-304" y="880" width="184" height="170" as="geometry"/>
                </mxCell>
            </root>
        </mxGraphModel>
    </diagram>
    <diagram id="DxHkEgZ_2HkPipDnaPcp" name="Page-2">
        <mxGraphModel dx="807" dy="-233" grid="1" gridSize="10" guides="1" tooltips="1" connect="1" arrows="1" fold="1" page="1" pageScale="1" pageWidth="1100" pageHeight="850" math="0" shadow="0">
            <root>
                <mxCell id="0"/>
                <mxCell id="1" parent="0"/>
                <mxCell id="5fuhM9ePeNs4T8A8A1_9-1" value="You will need to fill out an ACC applicaiton&amp;nbsp;" style="rounded=0;whiteSpace=wrap;html=1;" parent="1" vertex="1">
                    <mxGeometry x="2690" y="1135" width="160" height="80" as="geometry"/>
                </mxCell>
                <mxCell id="5fuhM9ePeNs4T8A8A1_9-2" value="Tawk" style="rounded=0;whiteSpace=wrap;html=1;" parent="1" vertex="1">
                    <mxGeometry x="2690" y="1455" width="160" height="80" as="geometry"/>
                </mxCell>
                <mxCell id="5fuhM9ePeNs4T8A8A1_9-3" value="No ACC Applicaiton needed&amp;nbsp;" style="rounded=0;whiteSpace=wrap;html=1;" parent="1" vertex="1">
                    <mxGeometry x="2690" y="865" width="160" height="80" as="geometry"/>
                </mxCell>
                <mxCell id="5fuhM9ePeNs4T8A8A1_9-8" style="edgeStyle=orthogonalEdgeStyle;rounded=0;orthogonalLoop=1;jettySize=auto;html=1;" parent="1" source="5fuhM9ePeNs4T8A8A1_9-6" target="5fuhM9ePeNs4T8A8A1_9-7" edge="1">
                    <mxGeometry relative="1" as="geometry"/>
                </mxCell>
                <mxCell id="5fuhM9ePeNs4T8A8A1_9-9" style="edgeStyle=orthogonalEdgeStyle;rounded=0;orthogonalLoop=1;jettySize=auto;html=1;exitX=0.5;exitY=0;exitDx=0;exitDy=0;" parent="1" source="5fuhM9ePeNs4T8A8A1_9-6" target="5fuhM9ePeNs4T8A8A1_9-3" edge="1">
                    <mxGeometry relative="1" as="geometry">
                        <Array as="points">
                            <mxPoint x="90" y="880"/>
                        </Array>
                    </mxGeometry>
                </mxCell>
                <mxCell id="5fuhM9ePeNs4T8A8A1_9-21" value="&lt;font style=&quot;font-size: 20px;&quot;&gt;Yes&lt;/font&gt;" style="edgeLabel;html=1;align=center;verticalAlign=middle;resizable=0;points=[];" parent="5fuhM9ePeNs4T8A8A1_9-9" vertex="1" connectable="0">
                    <mxGeometry x="-0.5617" y="3" relative="1" as="geometry">
                        <mxPoint x="-1" as="offset"/>
                    </mxGeometry>
                </mxCell>
                <mxCell id="5fuhM9ePeNs4T8A8A1_9-6" value="Are you working on the interior&amp;nbsp;of the home" style="ellipse;whiteSpace=wrap;html=1;" parent="1" vertex="1">
                    <mxGeometry x="30" y="890" width="120" height="120" as="geometry"/>
                </mxCell>
                <mxCell id="5fuhM9ePeNs4T8A8A1_9-10" style="edgeStyle=orthogonalEdgeStyle;rounded=0;orthogonalLoop=1;jettySize=auto;html=1;entryX=0;entryY=0.5;entryDx=0;entryDy=0;exitX=0.5;exitY=1;exitDx=0;exitDy=0;" parent="1" source="5fuhM9ePeNs4T8A8A1_9-7" target="5fuhM9ePeNs4T8A8A1_9-2" edge="1">
                    <mxGeometry relative="1" as="geometry">
                        <Array as="points">
                            <mxPoint x="90" y="1660"/>
                            <mxPoint x="2540" y="1660"/>
                            <mxPoint x="2540" y="1495"/>
                        </Array>
                    </mxGeometry>
                </mxCell>
                <mxCell id="5fuhM9ePeNs4T8A8A1_9-24" value="No" style="edgeLabel;html=1;align=center;verticalAlign=middle;resizable=0;points=[];fontSize=20;" parent="5fuhM9ePeNs4T8A8A1_9-10" vertex="1" connectable="0">
                    <mxGeometry x="-0.9263" y="-1" relative="1" as="geometry">
                        <mxPoint y="-1" as="offset"/>
                    </mxGeometry>
                </mxCell>
                <mxCell id="5fuhM9ePeNs4T8A8A1_9-12" value="" style="edgeStyle=orthogonalEdgeStyle;rounded=0;orthogonalLoop=1;jettySize=auto;html=1;entryX=0;entryY=0.5;entryDx=0;entryDy=0;" parent="1" source="5fuhM9ePeNs4T8A8A1_9-7" target="5fuhM9ePeNs4T8A8A1_9-11" edge="1">
                    <mxGeometry relative="1" as="geometry">
                        <Array as="points">
                            <mxPoint x="210" y="1210"/>
                            <mxPoint x="210" y="1030"/>
                        </Array>
                    </mxGeometry>
                </mxCell>
                <mxCell id="5fuhM9ePeNs4T8A8A1_9-23" value="Yes" style="edgeLabel;html=1;align=center;verticalAlign=middle;resizable=0;points=[];fontSize=20;" parent="5fuhM9ePeNs4T8A8A1_9-12" vertex="1" connectable="0">
                    <mxGeometry x="0.0481" relative="1" as="geometry">
                        <mxPoint as="offset"/>
                    </mxGeometry>
                </mxCell>
                <mxCell id="5fuhM9ePeNs4T8A8A1_9-7" value="Are you working on the exterior&amp;nbsp;of the home" style="ellipse;whiteSpace=wrap;html=1;" parent="1" vertex="1">
                    <mxGeometry x="30" y="1330" width="120" height="120" as="geometry"/>
                </mxCell>
                <mxCell id="5fuhM9ePeNs4T8A8A1_9-20" value="&lt;font style=&quot;font-size: 20px;&quot;&gt;No&lt;/font&gt;" style="edgeStyle=orthogonalEdgeStyle;rounded=0;orthogonalLoop=1;jettySize=auto;html=1;entryX=0.5;entryY=0;entryDx=0;entryDy=0;exitX=0.507;exitY=1.002;exitDx=0;exitDy=0;exitPerimeter=0;" parent="1" source="5fuhM9ePeNs4T8A8A1_9-11" target="5fuhM9ePeNs4T8A8A1_9-19" edge="1">
                    <mxGeometry x="-0.0007" relative="1" as="geometry">
                        <Array as="points">
                            <mxPoint x="411" y="1150"/>
                            <mxPoint x="410" y="1150"/>
                            <mxPoint x="410" y="1230"/>
                        </Array>
                        <mxPoint as="offset"/>
                    </mxGeometry>
                </mxCell>
                <mxCell id="5fuhM9ePeNs4T8A8A1_9-26" style="edgeStyle=orthogonalEdgeStyle;rounded=0;orthogonalLoop=1;jettySize=auto;html=1;fontSize=20;" parent="1" source="5fuhM9ePeNs4T8A8A1_9-11" target="5fuhM9ePeNs4T8A8A1_9-25" edge="1">
                    <mxGeometry relative="1" as="geometry"/>
                </mxCell>
                <mxCell id="5fuhM9ePeNs4T8A8A1_9-29" value="Yes" style="edgeLabel;html=1;align=center;verticalAlign=middle;resizable=0;points=[];fontSize=15;" parent="5fuhM9ePeNs4T8A8A1_9-26" vertex="1" connectable="0">
                    <mxGeometry x="-0.1764" relative="1" as="geometry">
                        <mxPoint as="offset"/>
                    </mxGeometry>
                </mxCell>
                <mxCell id="5fuhM9ePeNs4T8A8A1_9-11" value="Are you working on the roof?" style="ellipse;whiteSpace=wrap;html=1;" parent="1" vertex="1">
                    <mxGeometry x="350" y="960" width="120" height="120" as="geometry"/>
                </mxCell>
                <mxCell id="5fuhM9ePeNs4T8A8A1_9-45" value="Yes" style="edgeStyle=orthogonalEdgeStyle;rounded=0;orthogonalLoop=1;jettySize=auto;html=1;fontSize=15;entryX=0.5;entryY=1;entryDx=0;entryDy=0;" parent="1" source="5fuhM9ePeNs4T8A8A1_9-19" target="5fuhM9ePeNs4T8A8A1_9-44" edge="1">
                    <mxGeometry x="0.1429" relative="1" as="geometry">
                        <mxPoint x="700" y="1400" as="targetPoint"/>
                        <Array as="points">
                            <mxPoint x="870" y="1390"/>
                            <mxPoint x="870" y="1370"/>
                            <mxPoint x="990" y="1370"/>
                        </Array>
                        <mxPoint as="offset"/>
                    </mxGeometry>
                </mxCell>
                <mxCell id="5fuhM9ePeNs4T8A8A1_9-47" value="No" style="edgeStyle=orthogonalEdgeStyle;rounded=0;orthogonalLoop=1;jettySize=auto;html=1;fontSize=15;" parent="1" source="5fuhM9ePeNs4T8A8A1_9-19" edge="1">
                    <mxGeometry relative="1" as="geometry">
                        <mxPoint x="410" y="1490" as="targetPoint"/>
                    </mxGeometry>
                </mxCell>
                <mxCell id="5fuhM9ePeNs4T8A8A1_9-19" value="Are you working on the body of the home" style="ellipse;whiteSpace=wrap;html=1;" parent="1" vertex="1">
                    <mxGeometry x="350" y="1280" width="120" height="120" as="geometry"/>
                </mxCell>
                <mxCell id="5fuhM9ePeNs4T8A8A1_9-28" value="No" style="edgeStyle=orthogonalEdgeStyle;rounded=0;orthogonalLoop=1;jettySize=auto;html=1;fontSize=15;exitX=0.5;exitY=1;exitDx=0;exitDy=0;entryX=0.5;entryY=0;entryDx=0;entryDy=0;" parent="1" source="5fuhM9ePeNs4T8A8A1_9-25" target="5fuhM9ePeNs4T8A8A1_9-27" edge="1">
                    <mxGeometry x="0.1111" relative="1" as="geometry">
                        <mxPoint x="628" y="1416" as="targetPoint"/>
                        <Array as="points">
                            <mxPoint x="680" y="1145"/>
                            <mxPoint x="680" y="1145"/>
                        </Array>
                        <mxPoint as="offset"/>
                    </mxGeometry>
                </mxCell>
                <mxCell id="5fuhM9ePeNs4T8A8A1_9-41" style="edgeStyle=orthogonalEdgeStyle;rounded=0;orthogonalLoop=1;jettySize=auto;html=1;fontSize=15;exitX=1;exitY=0.5;exitDx=0;exitDy=0;" parent="1" source="5fuhM9ePeNs4T8A8A1_9-25" edge="1">
                    <mxGeometry relative="1" as="geometry">
                        <mxPoint x="790" y="880" as="targetPoint"/>
                        <Array as="points">
                            <mxPoint x="800" y="1025"/>
                            <mxPoint x="800" y="920"/>
                        </Array>
                    </mxGeometry>
                </mxCell>
                <mxCell id="5fuhM9ePeNs4T8A8A1_9-25" value="&lt;font style=&quot;font-size: 15px;&quot;&gt;Are you installing a item your roof&amp;nbsp;&lt;/font&gt;" style="ellipse;whiteSpace=wrap;html=1;fontSize=20;" parent="1" vertex="1">
                    <mxGeometry x="610" y="970" width="140" height="110" as="geometry"/>
                </mxCell>
                <mxCell id="5fuhM9ePeNs4T8A8A1_9-43" style="edgeStyle=orthogonalEdgeStyle;rounded=0;orthogonalLoop=1;jettySize=auto;html=1;fontSize=15;" parent="1" source="5fuhM9ePeNs4T8A8A1_9-27" edge="1">
                    <mxGeometry relative="1" as="geometry">
                        <mxPoint x="870" y="880" as="targetPoint"/>
                        <Array as="points">
                            <mxPoint x="870" y="1275"/>
                            <mxPoint x="870" y="1085"/>
                        </Array>
                    </mxGeometry>
                </mxCell>
                <mxCell id="5fuhM9ePeNs4T8A8A1_9-57" value="Yes`" style="edgeLabel;html=1;align=center;verticalAlign=middle;resizable=0;points=[];fontSize=15;" parent="5fuhM9ePeNs4T8A8A1_9-43" vertex="1" connectable="0">
                    <mxGeometry x="0.0568" y="1" relative="1" as="geometry">
                        <mxPoint as="offset"/>
                    </mxGeometry>
                </mxCell>
                <mxCell id="5fuhM9ePeNs4T8A8A1_9-27" value="&lt;font style=&quot;font-size: 15px;&quot;&gt;Are you replacing a item your roof&amp;nbsp;&lt;/font&gt;" style="ellipse;whiteSpace=wrap;html=1;fontSize=20;" parent="1" vertex="1">
                    <mxGeometry x="610" y="1220" width="140" height="110" as="geometry"/>
                </mxCell>
                <mxCell id="5fuhM9ePeNs4T8A8A1_9-53" value="" style="edgeStyle=orthogonalEdgeStyle;rounded=0;orthogonalLoop=1;jettySize=auto;html=1;fontSize=15;" parent="1" source="5fuhM9ePeNs4T8A8A1_9-44" target="5fuhM9ePeNs4T8A8A1_9-52" edge="1">
                    <mxGeometry relative="1" as="geometry">
                        <Array as="points">
                            <mxPoint x="1130" y="1340"/>
                        </Array>
                    </mxGeometry>
                </mxCell>
                <mxCell id="5fuhM9ePeNs4T8A8A1_9-64" value="No" style="edgeLabel;html=1;align=center;verticalAlign=middle;resizable=0;points=[];fontSize=15;" parent="5fuhM9ePeNs4T8A8A1_9-53" vertex="1" connectable="0">
                    <mxGeometry x="0.2417" y="1" relative="1" as="geometry">
                        <mxPoint as="offset"/>
                    </mxGeometry>
                </mxCell>
                <mxCell id="5fuhM9ePeNs4T8A8A1_9-56" value="" style="edgeStyle=orthogonalEdgeStyle;rounded=0;orthogonalLoop=1;jettySize=auto;html=1;fontSize=15;" parent="1" source="5fuhM9ePeNs4T8A8A1_9-44" target="5fuhM9ePeNs4T8A8A1_9-55" edge="1">
                    <mxGeometry relative="1" as="geometry">
                        <Array as="points">
                            <mxPoint x="1250" y="1190"/>
                            <mxPoint x="1250" y="1070"/>
                        </Array>
                    </mxGeometry>
                </mxCell>
                <mxCell id="5fuhM9ePeNs4T8A8A1_9-58" value="yes" style="edgeLabel;html=1;align=center;verticalAlign=middle;resizable=0;points=[];fontSize=15;" parent="5fuhM9ePeNs4T8A8A1_9-56" vertex="1" connectable="0">
                    <mxGeometry x="-0.1913" y="2" relative="1" as="geometry">
                        <mxPoint as="offset"/>
                    </mxGeometry>
                </mxCell>
                <mxCell id="5fuhM9ePeNs4T8A8A1_9-44" value="Are you working on the body of the home" style="ellipse;whiteSpace=wrap;html=1;fontSize=15;" parent="1" vertex="1">
                    <mxGeometry x="930" y="1190" width="120" height="120" as="geometry"/>
                </mxCell>
                <mxCell id="5fuhM9ePeNs4T8A8A1_9-66" value="No" style="edgeStyle=orthogonalEdgeStyle;rounded=0;orthogonalLoop=1;jettySize=auto;html=1;fontSize=15;" parent="1" source="5fuhM9ePeNs4T8A8A1_9-52" target="5fuhM9ePeNs4T8A8A1_9-65" edge="1">
                    <mxGeometry relative="1" as="geometry">
                        <Array as="points">
                            <mxPoint x="1350" y="1410"/>
                        </Array>
                    </mxGeometry>
                </mxCell>
                <mxCell id="5fuhM9ePeNs4T8A8A1_9-74" value="Yes" style="edgeStyle=orthogonalEdgeStyle;rounded=0;orthogonalLoop=1;jettySize=auto;html=1;fontSize=15;entryX=0;entryY=0.417;entryDx=0;entryDy=0;entryPerimeter=0;" parent="1" source="5fuhM9ePeNs4T8A8A1_9-52" target="5fuhM9ePeNs4T8A8A1_9-73" edge="1">
                    <mxGeometry x="-0.157" relative="1" as="geometry">
                        <Array as="points">
                            <mxPoint x="1350" y="1160"/>
                            <mxPoint x="1430" y="1160"/>
                            <mxPoint x="1430" y="980"/>
                        </Array>
                        <mxPoint as="offset"/>
                    </mxGeometry>
                </mxCell>
                <mxCell id="5fuhM9ePeNs4T8A8A1_9-52" value="Are you planing to work the landscape" style="ellipse;whiteSpace=wrap;html=1;fontSize=15;" parent="1" vertex="1">
                    <mxGeometry x="1290" y="1210" width="120" height="120" as="geometry"/>
                </mxCell>
                <mxCell id="5fuhM9ePeNs4T8A8A1_9-60" value="Yes" style="edgeStyle=orthogonalEdgeStyle;rounded=0;orthogonalLoop=1;jettySize=auto;html=1;fontSize=15;" parent="1" source="5fuhM9ePeNs4T8A8A1_9-55" edge="1">
                    <mxGeometry relative="1" as="geometry">
                        <mxPoint x="1270" y="880" as="targetPoint"/>
                        <Array as="points">
                            <mxPoint x="1270" y="890"/>
                        </Array>
                    </mxGeometry>
                </mxCell>
                <mxCell id="5fuhM9ePeNs4T8A8A1_9-62" value="No" style="edgeStyle=orthogonalEdgeStyle;rounded=0;orthogonalLoop=1;jettySize=auto;html=1;fontSize=15;exitX=0.84;exitY=0.878;exitDx=0;exitDy=0;exitPerimeter=0;" parent="1" source="5fuhM9ePeNs4T8A8A1_9-55" target="5fuhM9ePeNs4T8A8A1_9-61" edge="1">
                    <mxGeometry x="-0.0209" y="-10" relative="1" as="geometry">
                        <Array as="points">
                            <mxPoint x="1310" y="1045"/>
                            <mxPoint x="1310" y="1090"/>
                            <mxPoint x="1700" y="1090"/>
                            <mxPoint x="1700" y="1230"/>
                        </Array>
                        <mxPoint x="-1" as="offset"/>
                    </mxGeometry>
                </mxCell>
                <mxCell id="5fuhM9ePeNs4T8A8A1_9-55" value="Are you painintg&amp;nbsp;" style="ellipse;whiteSpace=wrap;html=1;fontSize=15;" parent="1" vertex="1">
                    <mxGeometry x="1200" y="940" width="120" height="120" as="geometry"/>
                </mxCell>
                <mxCell id="5fuhM9ePeNs4T8A8A1_9-61" value="Exdending the Home" style="ellipse;whiteSpace=wrap;html=1;fontSize=15;" parent="1" vertex="1">
                    <mxGeometry x="2150" y="1170" width="120" height="120" as="geometry"/>
                </mxCell>
                <mxCell id="5fuhM9ePeNs4T8A8A1_9-68" style="edgeStyle=orthogonalEdgeStyle;rounded=0;orthogonalLoop=1;jettySize=auto;html=1;fontSize=15;exitX=0.5;exitY=1;exitDx=0;exitDy=0;" parent="1" source="5fuhM9ePeNs4T8A8A1_9-65" edge="1">
                    <mxGeometry relative="1" as="geometry">
                        <mxPoint x="2200" y="1660" as="targetPoint"/>
                        <Array as="points">
                            <mxPoint x="2200" y="1630"/>
                            <mxPoint x="2200" y="1630"/>
                        </Array>
                    </mxGeometry>
                </mxCell>
                <mxCell id="5fuhM9ePeNs4T8A8A1_9-69" value="No" style="edgeLabel;html=1;align=center;verticalAlign=middle;resizable=0;points=[];fontSize=15;" parent="5fuhM9ePeNs4T8A8A1_9-68" vertex="1" connectable="0">
                    <mxGeometry x="-0.2694" relative="1" as="geometry">
                        <mxPoint as="offset"/>
                    </mxGeometry>
                </mxCell>
                <mxCell id="5fuhM9ePeNs4T8A8A1_9-65" value="Are you adding an item to the home" style="ellipse;whiteSpace=wrap;html=1;fontSize=15;" parent="1" vertex="1">
                    <mxGeometry x="2140" y="1360" width="120" height="120" as="geometry"/>
                </mxCell>
                <mxCell id="5fuhM9ePeNs4T8A8A1_9-79" value="Yes" style="edgeStyle=orthogonalEdgeStyle;rounded=0;orthogonalLoop=1;jettySize=auto;html=1;fontSize=15;" parent="1" source="5fuhM9ePeNs4T8A8A1_9-73" edge="1">
                    <mxGeometry relative="1" as="geometry">
                        <mxPoint x="2200" y="880" as="targetPoint"/>
                    </mxGeometry>
                </mxCell>
                <mxCell id="5fuhM9ePeNs4T8A8A1_9-81" value="No" style="edgeStyle=orthogonalEdgeStyle;rounded=0;orthogonalLoop=1;jettySize=auto;html=1;exitX=1;exitY=1;exitDx=0;exitDy=0;fontSize=15;" parent="1" source="5fuhM9ePeNs4T8A8A1_9-73" edge="1">
                    <mxGeometry relative="1" as="geometry">
                        <mxPoint x="2020" y="1660" as="targetPoint"/>
                        <Array as="points">
                            <mxPoint x="1922" y="1140"/>
                        </Array>
                    </mxGeometry>
                </mxCell>
                <mxCell id="5fuhM9ePeNs4T8A8A1_9-73" value="Adding a space?" style="ellipse;whiteSpace=wrap;html=1;fontSize=15;" parent="1" vertex="1">
                    <mxGeometry x="1820" y="930" width="120" height="120" as="geometry"/>
                </mxCell>
            </root>
        </mxGraphModel>
    </diagram>
</mxfile>